<?xml version="1.0" encoding="utf-8"?>
<!-- Generator: Adobe Illustrator 24.0.2, SVG Export Plug-In . SVG Version: 6.00 Build 0)  -->
<svg version="1.1" id="レイヤー_4" xmlns="http://www.w3.org/2000/svg" xmlns:xlink="http://www.w3.org/1999/xlink" x="0px"
	 y="0px" viewBox="0 0 190 42" enable-background="new 0 0 190 42" xml:space="preserve">
<g>
	<g>
		<g>
			<polygon fill="#231815" points="110.6,0.2 121.1,0.2 121.1,2.9 114.1,2.9 114.1,7 120.7,7 120.7,9.8 114.1,9.8 114.1,16.9 
				110.6,16.9 			"/>
			<path fill="#231815" d="M128,5c4.2,0,6,2.9,6,6.1s-1.8,6.2-6,6.2c-3.3,0-5.9-2.1-5.9-6.1C122,8.4,123.4,5,128,5 M128,14.9
				c1.5,0,2.5-0.9,2.5-4c0-1.6-0.3-3.7-2.5-3.7c-2.5,0-2.5,2.9-2.5,3.9C125.5,13.8,126.3,14.9,128,14.9"/>
			<path fill="#231815" d="M136,8.1c0-0.5-0.1-2.2-0.2-2.9h3.1l0.1,2.2c0.4-1,1.2-2.4,3.9-2.3v3.1c-3.4-0.3-3.6,1.5-3.6,2.9v5.7H136
				V8.1z"/>
			<polygon fill="#231815" points="0,0.2 10.6,0.2 10.6,2.9 3.5,2.9 3.5,7 10.1,7 10.1,9.8 3.5,9.8 3.5,16.9 0,16.9 			"/>
			<path fill="#231815" d="M17.4,5c4.2,0,6,2.9,6,6.1s-1.8,6.2-6,6.2c-3.3,0-5.9-2.1-5.9-6.1C11.5,8.4,12.9,5,17.4,5 M17.4,14.9
				c1.5,0,2.5-0.9,2.5-4c0-1.6-0.3-3.7-2.5-3.7c-2.5,0-2.5,2.9-2.5,3.9C14.9,13.8,15.8,14.9,17.4,14.9"/>
			<path fill="#231815" d="M25.4,8.1c0-0.5-0.1-2.2-0.2-2.9h3.1l0.1,2.2c0.4-1,1.2-2.4,3.9-2.3v3.1c-3.4-0.3-3.6,1.5-3.6,2.9v5.7
				h-3.4V8.1z"/>
			<polygon fill="#231815" points="41.3,0.2 52.3,0.2 52.3,3 44.9,3 44.9,6.9 51.9,6.9 51.9,9.6 44.9,9.6 44.9,14.1 52.6,14.1 
				52.6,16.9 41.3,16.9 			"/>
			<path fill="#231815" d="M61.6,16.9c-0.1-0.7-0.1-1.3-0.1-1.6c-1.3,1.9-2.8,1.9-3.4,1.9c-1.7,0-2.4-0.5-2.9-0.9
				c-0.7-0.7-1-1.6-1-2.6c0-0.9,0.3-2.6,2.4-3.6c1.4-0.6,3.4-0.6,4.5-0.6c0-0.8,0-1.1-0.2-1.6c-0.3-0.8-1.2-1-1.5-1
				c-0.5,0-1,0.2-1.3,0.6C58,8,58,8.3,58,8.6h-3.3c0-0.6,0.1-1.9,1.3-2.7c1-0.8,2.4-1,3.5-1c1,0,2.9,0.2,4.1,1.5
				c0.8,1,0.8,2.3,0.8,2.9l0,4.7c0,1,0.1,2,0.3,2.9L61.6,16.9L61.6,16.9z M57.5,13.3c0,0.8,0.5,1.7,1.6,1.7c0.6,0,1.1-0.3,1.4-0.7
				c0.6-0.8,0.6-1.6,0.6-2.9C59.1,11.2,57.5,11.9,57.5,13.3"/>
			<path fill="#231815" d="M67,8.1c0-0.5-0.1-2.2-0.2-2.9h3.1L70,7.5c0.4-1,1.2-2.4,3.9-2.3v3.1c-3.4-0.3-3.6,1.5-3.6,2.9v5.7H67
				V8.1z"/>
			<path fill="#231815" d="M83.8,16.7c-1.1,0.3-2.1,0.4-2.6,0.4c-3.4,0-3.4-2.2-3.4-3.1V7.6h-2.2V5.3h2.2V3.1l3.4-1.3v3.5h2.7v2.3
				h-2.7v5.2c0,1,0,1.7,1.5,1.7c0.5,0,0.7,0,1.1-0.1V16.7z"/>
			<path fill="#231815" d="M86,0.2h3.4v6.6c0.4-0.5,1.2-1.8,3.3-1.8c1.7,0,2.8,0.8,3.4,1.6c0.4,0.6,0.8,1.6,0.8,3.1v7.1h-3.4V9.9
				c0-0.7,0-2.5-1.9-2.5c-1,0-2.2,0.5-2.2,2.4l0,7.1H86V0.2z"/>
			<polygon fill="#231815" points="103.8,13.1 101,18.8 98.7,18.8 100.4,13.1 			"/>
			<polygon fill="#231815" points="152.8,0.2 156.4,0.2 156.4,14 163.5,14 163.5,16.9 152.8,16.9 			"/>
			<path fill="#231815" d="M165.5,0.2h3.6v3h-3.6V0.2z M165.6,5.2h3.4v11.7h-3.4V5.2z"/>
			<path fill="#231815" d="M172.8,7.7h-1.7V5.2h1.7V3.6c0-2.1,0.7-3.7,3.9-3.7c0.2,0,0.9,0,1.8,0.1v2.4c-0.3,0-0.4-0.1-0.7-0.1
				c-1.7,0-1.7,0.9-1.7,1.5v1.3h2.1v2.4h-2.1v9.2h-3.4L172.8,7.7L172.8,7.7z"/>
			<path fill="#231815" d="M182.3,11.9c0,0.8,0,3.1,2.3,3.1c0.8,0,1.7-0.3,2-1.6h3.1c0,0.5-0.2,1.6-1.1,2.5c-0.8,0.9-2.3,1.3-4,1.3
				c-1,0-2.9-0.2-4.1-1.5c-1-1.1-1.5-2.7-1.5-4.5c0-1.9,0.5-4.2,2.4-5.5c0.9-0.6,2-1,3.2-1c1.6,0,3.6,0.6,4.7,2.8
				c0.8,1.6,0.7,3.3,0.7,4.3C190,11.9,182.3,11.9,182.3,11.9z M186.5,9.8c0-0.5,0-2.6-2-2.6c-1.5,0-2.1,1.3-2.2,2.6H186.5z"/>
		</g>
	</g>
	<path fill="#009EA7" d="M114.1,25.4h2.9v11.7h-2.9V25.4z M177.2,30.1h-2.9v-4.7h-2.9v16.4h2.9v-8.8h2.9V30.1z M129.1,25.4h-3.7
		l-7.5,8.2l7.5,8.2h3.7l-7.5-8.2L129.1,25.4z M149.5,30.1c-1.1,0-2.1,0.3-3,0.8v-5.5h-2.9v11.7h3.1c-0.1-0.3-0.2-0.7-0.2-1.1
		c0-1.7,1.3-3,3-3c1.7,0,3,1.3,3,3c0,1.7-1.3,3-3,3c-0.4,0-0.8-0.1-1-0.2v3c0.3,0.1,0.7,0.1,1,0.1c3.2,0,5.9-2.6,5.9-5.9
		C155.3,32.8,152.7,30.1,149.5,30.1z M137.6,30.1V36c0,1.7-1.3,3-3,3c-0.4,0-0.8-0.1-1-0.2v3c0.3,0.1,0.7,0.1,1,0.1
		c3.2,0,5.9-2.6,5.9-5.9v-5.9H137.6z M132,36L132,36v-5.9h-2.9V36c0,0.4,0,0.7,0.1,1.1h3C132.1,36.8,132,36.4,132,36z M163.1,30.1
		c-3.2,0-5.9,2.6-5.9,5.9c0,0.4,0,0.7,0.1,1.1h3c-0.1-0.3-0.2-0.7-0.2-1.1c0-1.7,1.3-3,3-3s3,1.3,3,3c0,1.7-1.3,3-3,3
		c-0.4,0-0.8-0.1-1-0.2v3c0.3,0.1,0.7,0.1,1,0.1c3.2,0,5.9-2.6,5.9-5.9C169,32.8,166.4,30.1,163.1,30.1z M184.2,30.3
		c-3.2,0-5.8,2.6-5.8,5.8c0,0.4,0,0.7,0.1,1h2.9c-0.1-0.3-0.2-0.7-0.2-1c0-1.6,1.3-3,3-3c1.6,0,3,1.3,3,3s-1.3,3-3,3
		c-0.4,0-0.7-0.1-1-0.2v2.9c0.3,0.1,0.7,0.1,1,0.1c1.3,0,2.2-0.5,3.1-1.4v1.3h2.7v-5.8C190,32.9,187.3,30.3,184.2,30.3z"/>
</g>
</svg>
